<svg id="svg" xmlns="http://www.w3.org/2000/svg" xmlns:xlink="http://www.w3.org/1999/xlink" width="400" height="400" viewBox="0, 0, 400,400"><g id="svgg"><path id="path0" d="M196.041 1.001 C 190.475 5.325,107.165 94.839,106.743 96.948 C 105.750 101.915,106.251 308.045,107.262 310.342 C 107.780 311.518,128.136 332.173,152.498 356.240 C 196.601 399.811,196.807 400.000,200.010 400.000 C 203.214 400.000,203.419 399.811,247.718 356.055 C 298.795 305.604,294.050 312.018,293.634 293.980 C 293.320 280.381,292.668 278.832,287.190 278.676 C 281.882 278.526,280.902 280.481,280.600 291.816 L 280.341 301.563 263.999 301.563 L 247.656 301.563 247.656 202.734 L 247.656 103.906 264.051 103.906 L 280.446 103.906 280.653 180.447 L 280.859 256.988 282.522 258.650 C 285.759 261.888,290.875 260.838,292.658 256.570 C 293.814 253.803,294.364 106.257,293.248 98.117 C 292.757 94.539,258.689 57.312,211.144 8.398 C 202.540 -0.453,199.702 -1.843,196.041 1.001 M215.683 56.319 C 224.030 74.833,230.977 90.302,231.120 90.694 C 231.274 91.115,218.568 91.406,200.000 91.406 C 181.432 91.406,168.726 91.115,168.880 90.694 C 170.384 86.580,199.622 22.656,200.000 22.656 C 200.279 22.656,207.337 37.804,215.683 56.319 M173.109 49.863 C 170.399 55.804,165.085 67.581,161.300 76.035 L 154.419 91.406 141.161 91.406 L 127.902 91.406 134.459 84.564 C 138.065 80.800,149.243 69.023,159.299 58.392 C 169.355 47.761,177.685 39.063,177.810 39.063 C 177.935 39.063,175.820 43.923,173.109 49.863 M240.720 58.393 C 250.765 69.025,261.935 80.803,265.541 84.565 L 272.098 91.406 258.869 91.406 L 245.641 91.406 238.698 75.977 C 234.880 67.490,229.552 55.713,226.859 49.805 C 224.166 43.896,222.073 39.063,222.209 39.063 C 222.344 39.063,230.674 47.761,240.720 58.393 M152.344 110.301 C 152.344 118.032,153.786 120.313,158.673 120.313 C 163.294 120.313,164.844 117.736,164.844 110.051 L 164.844 103.906 200.000 103.906 L 235.156 103.906 235.156 202.734 L 235.156 301.563 200.000 301.563 L 164.844 301.563 164.844 222.621 L 164.844 143.679 162.926 141.761 C 160.554 139.389,157.188 139.271,154.402 141.463 L 152.344 143.082 152.344 222.322 L 152.344 301.563 135.938 301.563 L 119.531 301.563 119.531 202.734 L 119.531 103.906 135.938 103.906 L 152.344 103.906 152.344 110.301 M158.768 323.320 C 163.504 333.274,165.362 335.059,169.820 333.940 C 174.841 332.680,175.367 328.303,171.473 320.181 L 168.728 314.453 184.364 314.242 C 192.964 314.125,207.030 314.125,215.622 314.242 L 231.244 314.453 215.876 346.289 C 207.424 363.799,200.273 378.125,199.986 378.125 C 199.699 378.125,196.161 371.230,192.125 362.802 C 183.298 344.369,180.874 341.920,175.584 346.081 C 172.297 348.667,172.241 351.053,175.312 357.521 C 176.817 360.689,177.975 363.281,177.887 363.281 C 177.798 363.281,166.655 352.207,153.125 338.672 L 128.525 314.063 141.444 314.063 L 154.364 314.063 158.768 323.320 M271.094 314.262 C 271.094 314.372,260.012 325.535,246.469 339.067 L 221.844 363.672 233.773 338.868 L 245.703 314.065 258.398 314.064 C 265.381 314.063,271.094 314.152,271.094 314.262 " stroke="none" fill="#257470" fill-rule="evenodd"></path></g></svg>